<?xml version="1.0" encoding="utf-8"?>
<!-- Generator: Adobe Illustrator 22.1.0, SVG Export Plug-In . SVG Version: 6.00 Build 0)  -->
<svg version="1.1" id="Layer_1" xmlns="http://www.w3.org/2000/svg" xmlns:xlink="http://www.w3.org/1999/xlink" x="0px" y="0px"
	 viewBox="0 0 300 300" style="enable-background:new 0 0 300 300;" xml:space="preserve">
<style type="text/css">
	.st0{fill:#FF0000;}
	.st1{fill:#FFFFFF;}
	.st2{fill:none;stroke:#2E3192;stroke-miterlimit:10;}
	.st3{fill:none;stroke:#FF0000;stroke-miterlimit:10;}
</style>
<g>
	<circle class="st0" cx="144.5" cy="152.5" r="67.5"/>
</g>
<g>
	<path class="st1" d="M95.2,127.5c3.9,0,7.1,0.8,9.5,2.4c2.5,1.6,3.7,3.8,3.8,6.5c0,2.7-0.8,5-2.5,6.8c-1,1-1.9,1.5-2.7,1.5
		c-0.8,0-1.5-0.2-1.9-0.6c-0.4-0.4-0.7-0.9-0.7-1.4c0-0.6,0.2-1.1,0.6-1.5c1.3-1.4,1.9-2.8,1.9-4.4c0-1.6-0.8-2.8-2.4-3.8
		c-1.6-0.9-3.6-1.4-6-1.4c-2.4,0-4.7,0.6-6.8,1.8c-2.2,1.2-3.2,2.7-3.2,4.4c0,1.7,0.5,3,1.4,3.9c1,0.9,2.6,1.9,4.8,3.2
		c2.3,1.2,3.6,2,4.1,2.2c0.5,0.3,1.2,0.7,2.2,1.2c1,0.5,1.6,0.9,1.9,1.1c0.3,0.2,0.9,0.5,1.7,1c0.8,0.5,1.3,0.9,1.6,1.1
		c0.3,0.2,0.7,0.6,1.3,1.1c0.6,0.5,1,0.9,1.2,1.2c0.2,0.3,0.5,0.7,0.8,1.3c0.8,1.2,1.3,2.9,1.3,5.1c0,3.7-1.6,6.7-4.9,8.8
		c-3.2,2.2-7.3,3.2-12.1,3.2c-4.8,0-8.8-1-12-3.1c-3.2-2-4.8-5-4.8-8.8c0-1.5,0.5-2.8,1.4-4c0.9-1.1,2-1.7,3.3-1.7
		c1.3,0,2,0.5,2,1.6c0,0.4-0.1,1.1-0.4,2c-0.3,0.9-0.4,1.6-0.4,2.1c0,2.4,1,4.2,2.9,5.5s4.6,1.9,8.2,1.9s6.2-0.7,8-2
		c1.8-1.3,2.7-3,2.7-5.1c0-2.1-0.9-3.8-2.6-5.2c-0.9-0.7-1.8-1.2-2.6-1.7c-0.8-0.5-1.9-1-3.3-1.8c-1.4-0.7-2.4-1.2-2.9-1.5
		c-0.5-0.3-1.3-0.7-2.2-1.3c-1-0.6-1.6-0.9-1.8-1.1c-0.2-0.2-0.7-0.5-1.6-1c-0.8-0.5-1.3-0.9-1.6-1.1c-0.2-0.2-0.6-0.6-1.2-1.1
		c-0.6-0.5-1-1-1.1-1.4c-0.2-0.4-0.5-0.9-0.8-1.7c-0.4-0.7-0.6-1.9-0.6-3.5c0-3.3,1.6-6,4.9-7.9C86.9,128.5,90.8,127.5,95.2,127.5z"
		/>
	<path class="st1" d="M111,161.2c0-0.8,0-1.7,0.1-2.6c0.4-6.8,1.7-13.9,4-21.2c1.2-3.6,2.8-6.6,4.8-9c2-2.4,4.2-3.6,6.7-3.6
		c1.4,0,2.6,0.4,3.4,1.3c0.8,0.9,1.3,2,1.3,3.5v0.4c-0.3,2.6-1.6,5.6-3.7,8.8c-2.1,3.2-5.8,7.2-10.9,11.8l-1.1,6
		c2-3.4,4.2-6.1,6.7-8.1c2.5-1.9,4.3-2.9,5.4-2.9s1.9,0.2,2.5,0.7c0.6,0.5,0.9,1,0.9,1.5c0,0.5-0.1,1.1-0.3,1.6
		c-0.2,0.6-0.9,2.3-2.2,5.2c-1.2,2.9-1.9,5-1.9,6.2c0,0.4,0.2,0.6,0.7,0.6c0.5,0,1.5-0.5,3-1.4s3-1.9,4.3-3c0.2-0.1,0.4-0.2,0.8-0.2
		c0.3,0,0.6,0.2,0.9,0.7c0.3,0.5,0.4,1.1,0.4,1.8c0,0.7-0.4,1.4-1.2,2c-4,2.7-7.6,4.1-10.7,4.1c-0.7,0-1.4-0.3-2-0.9
		c-0.6-0.6-0.9-1.6-0.9-2.9s0.5-3.3,1.4-5.7c1-2.4,1.4-3.7,1.4-3.9c0-0.2-0.1-0.2-0.2-0.2c-0.2,0-0.5,0.2-1,0.5
		c-1.5,1.1-3,2.7-4.7,4.8c-1.6,2.1-2.7,3.8-3.2,5.2c-0.5,1.4-0.9,2.3-1.2,2.6c-0.3,0.4-0.9,0.6-1.7,0.6c-0.8,0-1.4-0.4-1.7-1.1
		C111.2,163.6,111,162.6,111,161.2z M125.3,129.7c-1.8,0-3.7,2.7-5.7,8c-1,2.8-1.8,5.6-2.3,8.4c2.4-2.5,4.5-5.2,6.4-8.1
		c1.9-2.9,2.8-5.2,2.8-7C126.6,130.1,126.1,129.7,125.3,129.7z"/>
	<path class="st1" d="M133.2,159.2c0-3.6,1.3-6.8,3.9-9.6c2.6-2.8,5.3-4.2,8.2-4.2c1.6,0,2.5,0.4,2.5,1.3v0.4h1.4
		c1.1,0,1.7,0.5,1.7,1.6v0.4l-1.7,10.3c0,0.2-0.1,0.4-0.1,0.7c0,1,0.3,1.4,1,1.4c1.5,0,3.3-1.3,5.4-4c0.3-0.4,0.6-0.5,0.8-0.5
		c0.4,0,0.7,0.3,1,0.9c0.3,0.6,0.4,1.2,0.4,1.6c0,0.5,0,0.8-0.1,1.1c-0.9,1.3-2.1,2.5-3.6,3.5c-1.5,1.1-2.9,1.6-4.2,1.6
		c-1.3,0-2.4-0.3-3.1-1c-0.7-0.7-1.2-1.7-1.4-2.9c0,0,0,0.1,0,0.1c-0.7,1.3-1.6,2.3-2.7,3c-1.2,0.7-2.5,1.1-4.1,1.1
		c-1.6,0-2.9-0.6-3.9-1.8C133.6,162.7,133.2,161.1,133.2,159.2z M139.9,161.5c1.1,0,2.1-0.6,3.1-1.8c1-1.2,1.6-2.5,2-4l1.6-6.7
		c-2.3,0-4.4,1.1-6.2,3.3c-1.8,2.2-2.8,4.3-2.8,6.2C137.7,160.5,138.4,161.5,139.9,161.5z"/>
	<path class="st1" d="M151.8,177.2c0.1-1.3,0.6-4.3,1.6-9c0.9-4.7,1.4-7.2,1.6-7.7c0.1-0.5,0.5-1.6,1.1-3.4c0.6-1.8,1.3-3.6,2.1-5.3
		c0.7-1.4,1.4-2.4,2.2-3.3c0.8-0.8,1.8-1.5,3-2.1c1.2-0.6,2.7-0.9,4.4-0.9c1.7,0,3,0.6,3.9,1.8c0.9,1.2,1.4,2.7,1.4,4.5
		c0,0.4,0,1.1-0.1,1.9c2-0.4,4.6-2.2,7.9-5.3c0.2-0.1,0.5-0.2,0.7-0.2c0.2,0,0.5,0.2,0.7,0.5c0.2,0.3,0.3,0.7,0.3,1.3
		c0,0.5-0.2,0.9-0.7,1.3c-1,1.2-2.5,2.5-4.5,3.8s-3.8,2.2-5.5,2.6c-0.9,2.3-2.2,4.2-3.8,5.8c-1.7,1.5-3.6,2.3-5.6,2.3
		c-1.2,0-2.4-0.5-3.5-1.6c-0.1,0.5-0.5,2.7-1.3,6.7c-0.7,4-1.2,6.2-1.4,6.8s-0.7,1.1-1.4,1.5c-0.8,0.5-1.4,0.7-2,0.7l-0.4-0.6
		c-0.3-0.4-0.5-0.9-0.5-1.3L151.8,177.2z M162.5,161.7c1,0,2-0.4,3-1.2c0.9-0.8,1.7-1.8,2.3-3.1c-1-0.5-1.5-1.3-1.5-2.5
		c0-0.7,0.1-1.2,0.3-1.6s0.7-0.9,1.5-1.5c0.1-0.2,0.2-0.3,0.2-0.3c-0.5-1.2-1.2-1.9-2.1-1.9c-0.9,0-1.7,0.3-2.4,0.8
		c-0.7,0.5-1.3,1.3-1.8,2.3s-0.9,1.9-1.1,2.7c-0.3,0.8-0.5,1.8-0.8,3c-0.3,1.2-0.5,1.9-0.6,2.2C160.5,161.3,161.5,161.7,162.5,161.7
		z"/>
	<path class="st1" d="M175.1,157.7c0-3,1-5.7,2.9-8.2c1.9-2.5,4.3-3.8,7-3.8c1.6,0,3,0.5,4.1,1.4c1.1,0.9,1.6,2.2,1.6,3.7
		c0,2.2-0.9,4-2.7,5.3s-4.5,2.4-8.2,3.2c0.6,1.7,2,2.6,4.3,2.6c3.2,0,6.2-1.4,9.1-4.1c0.2-0.2,0.4-0.2,0.8-0.2s0.7,0.1,1,0.4
		c0.3,0.3,0.4,0.6,0.4,1c0,0.4-0.1,0.8-0.4,1.2c-1,1.4-2.6,2.7-4.7,3.9c-2.2,1.2-4.4,1.8-6.8,1.8s-4.3-0.7-6-2.1
		C175.9,162.3,175.1,160.3,175.1,157.7z M185.1,149.5c-1.3,0-2.6,0.8-3.8,2.2c-1.2,1.5-1.8,3.1-1.8,4.8c5-1.7,7.5-3.5,7.5-5.4
		C187.1,150.1,186.4,149.5,185.1,149.5z"/>
	<path class="st1" d="M201.6,165.7c-2.5,0-4.6-0.5-6.5-1.5c-1.9-1-3.2-2.2-3.9-3.7c1.8-3,4.1-7.6,7-13.6c0.6-1.2,1.6-1.9,2.8-1.9
		c0.6,0,1.1,0.2,1.5,0.6c0.4,0.4,0.6,0.9,0.6,1.5c0,0.6-0.1,1-0.4,1.4c-0.2,0.4-0.4,0.8-0.4,1.2c0,0.4,0.4,1.1,1.3,2.2
		s1.8,2.3,2.6,3.6c0.9,1.3,1.3,2.5,1.3,3.4c0,1-0.2,1.8-0.7,2.6c1.8-0.6,3.8-2.2,5.9-4.8c0.2-0.2,0.5-0.4,0.9-0.4s0.7,0.3,1.1,0.8
		s0.6,1,0.6,1.4c0,0.4-0.1,0.7-0.2,1c-1.2,1.8-2.9,3.3-5.2,4.4S204.9,165.7,201.6,165.7z M200.1,162.3h0.2c2,0,3-0.9,3-2.7
		c0-1.8-1-4.1-2.9-7l-4,8C197.9,161.8,199.1,162.3,200.1,162.3z"/>
</g>
<polygon class="st2" points="96.3,230.8 50.5,152.6 96.3,74.5 187.9,74.5 233.7,152.6 187.9,230.8 "/>
<rect x="44.5" y="60.5" class="st3" width="195" height="184"/>
</svg>
