<svg xmlns="http://www.w3.org/2000/svg" viewBox="0 0 500 500"><title>Artboard 1</title><g id="Layer_1" data-name="Layer 1"><polyline points="127.5 24.5 372.5 24.5 495.5 241.5 372.5 459.5 127.5 459.5 4.5 241.5 116.5 43.5 360.5 43.5 470.5 238.5 360.5 434.5 139.5 434.5 29.5 238.5 126.5 65.5 350.5 65.5 448.5 241.5 349.5 418.5 150.5 418.5 51.5 241.5 140.5 83.5 339.5 83.5 428.5 241.5 339.5 400.5 160.5 400.5 71.5 241.5 151.5 99.5 330.5 99.5 411.5 241.5 330.5 384.5 169.5 384.5 88.5 241.5 161.5 113.5 322.5 113.5 394.5 241.5 322.5 370.5 177.5 370.5 105.5 241.5 170.5 126.5 315.5 126.5 380.5 241.5 315.5 357.5 184.5 357.5 119.5 241.5 180.5 138.5 308.5 138.5 367.5 241.5 309.5 345.5 191.5 345.5 132.5 241.5 187.5 148.5 302.5 148.5 355.5 241.5 302.5 335.5 197.5 335.5 144.5 241.5 249.5 241.5" style="fill:none;stroke:#000;stroke-miterlimit:10;stroke-width:5px"/></g><g id="Layer_2" data-name="Layer 2"><polyline points="127.5 24.5 372.5 24.5 495.5 241.5 372.5 459.5 127.5 459.5 4.5 241.5 116.5 43.5 360.5 43.5 470.5 238.5 360.5 434.5 139.5 434.5 29.5 238.5 126.5 65.5 350.5 65.5 448.5 241.5 349.5 418.5 150.5 418.5 51.5 241.5 140.5 83.5 339.5 83.5 428.5 241.5 339.5 400.5 160.5 400.5 71.5 241.5 151.5 99.5 330.5 99.5 411.5 241.5 330.5 384.5 169.5 384.5 88.5 241.5 161.5 113.5 322.5 113.5 394.5 241.5 322.5 370.5 177.5 370.5 105.5 241.5 170.5 126.5 315.5 126.5 380.5 241.5 315.5 357.5 184.5 357.5 119.5 241.5 180.5 138.5 308.5 138.5 367.5 241.5 309.5 345.5 191.5 345.5 132.5 241.5 187.5 148.5 302.5 148.5 355.5 241.5 302.5 335.5 197.5 335.5 144.5 241.5 249.5 241.5" style="fill:none;stroke:#000;stroke-miterlimit:10;stroke-width:5px"/></g></svg>