<svg xmlns="http://www.w3.org/2000/svg" viewBox="0 0 250 250"><title>Artboard 1</title><g id="background"><circle cx="125" cy="125" r="117.25" style="fill:#fff"/><path d="M125,9.25a115.75,115.75,0,0,1,81.85,197.6A115.75,115.75,0,0,1,43.15,43.15,115,115,0,0,1,125,9.25m0-3A118.75,118.75,0,1,0,243.75,125,118.75,118.75,0,0,0,125,6.25Z"/></g><g id="title"><path d="M32.85,138.94l17.3-1.51a23.23,23.23,0,0,0,2.29,8.92q2.81,5,8,5a7.35,7.35,0,0,0,6-2.54,9.15,9.15,0,0,0,.1-11.57q-2-2.51-9.31-4.74-12-3.74-17.06-9.93t-5.14-15.78a27.54,27.54,0,0,1,2.63-11.9,20,20,0,0,1,7.91-8.81q5.28-3.21,14.47-3.21,11.28,0,17.2,5.83t7,18.54L67.17,108.6c-.45-3.68-1.41-6.35-2.87-8a7.6,7.6,0,0,0-6-2.51,6,6,0,0,0-4.78,1.87,6.74,6.74,0,0,0-1.6,4.55A5.29,5.29,0,0,0,53.2,108c.86,1.08,2.89,2.08,6.11,3q11.91,3.57,17.08,7.22a21.48,21.48,0,0,1,7.5,9.06,30,30,0,0,1,2.35,12.1,33.5,33.5,0,0,1-3.13,14.5A22.81,22.81,0,0,1,74.36,164q-5.62,3.42-14.17,3.43-15,0-20.8-8T32.85,138.94Z"/><path d="M89.61,84.23h19l13.25,58.83L135,84.23H153.4L131.55,166H111.84Z"/><path d="M186.12,136.37v-17h28.1v34.86q-8.07,7.64-14.27,10.4a36,36,0,0,1-14.71,2.76q-10.49,0-17.08-5t-10.24-14.77a64.77,64.77,0,0,1-3.63-22.53q0-13.38,4-23.28t11.64-15q6-4,16.1-4,9.75,0,14.59,2.45a20.11,20.11,0,0,1,8,7.62,39.67,39.67,0,0,1,4.8,13.07l-17.54,4.35a13.89,13.89,0,0,0-3.68-7.08,9.17,9.17,0,0,0-6.6-2.45q-6,0-9.53,5.77t-3.56,18.26q0,13.28,3.6,19a11.24,11.24,0,0,0,10,5.69,14.14,14.14,0,0,0,5.82-1.23,28.82,28.82,0,0,0,6.35-4.18v-7.7Z"/></g></svg>